<svg xmlns="http://www.w3.org/2000/svg" viewBox="0 0 160.44 160.44"><defs><style>.cls-1{fill:#4ee4c4;stroke:#000;stroke-miterlimit:10;stroke-width:4.57px;}.cls-2{fill:#fff;}</style></defs><title>b1</title><g id="CROHN_S_DISEASE_PATIENTS.psd" data-name="CROHN‘S DISEASE PATIENTS.psd"><rect class="cls-1" y="-160.44" width="160.44" height="160.44"/><rect class="cls-1" width="160.44" height="160.44"/><path class="cls-2" d="M445.7,137.24q-21.9,0-27.87-2C417.17,51.62,408.54-24.7,392-93.06a581.35,581.35,0,0,0-37.83-102.87q-36.84-65.71-77.65-65.71c-23.23,0-50.44,21.24-82.3,63C161.65-150.8,133.11-93.73,108.55-26L284.43-.81c0,2,.66,8,.66,18.58,0,8-1.32,14.6-3.31,19.25-23.23,0-85.62-6-187.16-19.25L61.43,139.23c-15.26,0-28.53-2-39.82-6.64C34.22,43.66,56.12-35.32,87.32-105c18.58-43.14,40.48-82.29,67-117.47,42.47-55.75,83-84.29,121.45-84.29s73,21.24,103.54,63c21.9,31.2,40.48,71,55.75,118.8A845,845,0,0,1,463,89.45v45.79C454.33,136.57,448.36,137.24,445.7,137.24Z"/></g></svg>