<svg xmlns="http://www.w3.org/2000/svg" viewBox="0 0 162.44 160.44"><defs><style>.cls-1{fill:#4ee4c4;stroke:#000;stroke-miterlimit:10;stroke-width:4.57px;}.cls-2{fill:#fff;}</style></defs><title>b2</title><g id="CROHN_S_DISEASE_PATIENTS.psd" data-name="CROHN‘S DISEASE PATIENTS.psd"><rect class="cls-1" x="0.84" width="160.44" height="160.44"/><rect class="cls-1" x="162.44" width="160.44" height="160.44"/><rect class="cls-1" y="-160.44" width="160.44" height="160.44"/><rect class="cls-1" x="162.44" y="-160.44" width="160.44" height="160.44"/><path class="cls-2" d="M282.93,137.24q-21.9,0-27.87-2c-.67-83.62-9.29-159.94-25.89-228.3a579.78,579.78,0,0,0-37.83-102.87q-36.83-65.71-77.65-65.71c-23.23,0-50.44,21.24-82.29,63C-1.12-150.8-29.66-93.73-54.22-26L121.66-.81c0,2,.66,8,.66,18.58,0,8-1.33,14.6-3.32,19.25-23.23,0-85.61-6-187.15-19.25l-33.19,121.46c-15.26,0-28.54-2-39.82-6.64,12.61-88.93,34.51-167.91,65.7-237.6,18.59-43.14,40.49-82.29,67-117.47,42.47-55.75,83-84.29,121.45-84.29s73,21.24,103.53,63c21.91,31.2,40.49,71,55.75,118.8A844.55,844.55,0,0,1,300.19,89.45v45.79C291.56,136.57,285.59,137.24,282.93,137.24Z"/></g></svg>