<svg xmlns="http://www.w3.org/2000/svg" viewBox="0 0 160.44 160.44"><defs><style>.cls-1{fill:#4ee4c4;stroke:#000;stroke-miterlimit:10;stroke-width:4.57px;}.cls-2{fill:#fff;}</style></defs><title>b3</title><g id="CROHN_S_DISEASE_PATIENTS.psd" data-name="CROHN‘S DISEASE PATIENTS.psd"><rect class="cls-1" x="-161.61" width="160.44" height="160.44"/><rect class="cls-1" width="160.44" height="160.44"/><rect class="cls-1" x="-162.44" y="-160.44" width="160.44" height="160.44"/><rect class="cls-1" y="-160.44" width="160.44" height="160.44"/><path class="cls-2" d="M120.49,137.24q-21.9,0-27.88-2C92,51.62,83.32-24.7,66.73-93.06A579.78,579.78,0,0,0,28.9-195.93q-36.84-65.71-77.65-65.71c-23.23,0-50.44,21.24-82.3,63C-163.57-150.8-192.1-93.73-216.66-26L-40.79-.81c0,2,.67,8,.67,18.58,0,8-1.33,14.6-3.32,19.25-23.23,0-85.62-6-187.16-19.25l-33.18,121.46c-15.27,0-28.54-2-39.82-6.64C-291,43.66-269.09-35.32-237.9-105c18.58-43.14,40.49-82.29,67-117.47,42.48-55.75,83-84.29,121.46-84.29s73,21.24,103.53,63c21.9,31.2,40.48,71,55.75,118.8A845,845,0,0,1,137.74,89.45v45.79C129.12,136.57,123.14,137.24,120.49,137.24Z"/></g></svg>