<svg xmlns="http://www.w3.org/2000/svg" viewBox="0 0 160.44 160.44"><defs><style>.cls-1{fill:#4ee4c4;stroke:#000;stroke-miterlimit:10;stroke-width:4.57px;}.cls-2{fill:#fff;}</style></defs><title>l1</title><g id="CROHN_S_DISEASE_PATIENTS.psd" data-name="CROHN‘S DISEASE PATIENTS.psd"><rect class="cls-1" width="160.44" height="160.44"/><rect class="cls-1" x="-1" y="160.44" width="160.44" height="160.44"/><rect class="cls-1" x="161.77" y="160.44" width="160.44" height="160.44"/><rect class="cls-1" x="162.61" width="160.44" height="160.44"/><path class="cls-2" d="M444.7,458.12q-21.9,0-27.87-2c-.66-83.62-9.29-159.95-25.88-228.31A581.93,581.93,0,0,0,353.12,125q-36.84-65.7-77.65-65.7c-23.23,0-50.44,21.24-82.3,63.05-32.52,47.78-61.06,104.86-85.62,172.56l175.88,25.22c0,2,.66,8,.66,18.58,0,8-1.32,14.6-3.31,19.25-23.23,0-85.62-6-187.16-19.25L60.43,460.11c-15.26,0-28.53-2-39.82-6.63,12.61-88.94,34.51-167.91,65.71-237.6,18.58-43.14,40.48-82.3,67-117.47,42.47-55.75,83-84.29,121.45-84.29s73,21.24,103.54,63.05c21.9,31.19,40.48,71,55.75,118.8A844.93,844.93,0,0,1,462,410.34v45.79C453.33,457.46,447.36,458.12,444.7,458.12Z"/></g></svg>