<svg xmlns="http://www.w3.org/2000/svg" viewBox="0 0 160.44 160.44"><defs><style>.cls-1{fill:#4ee4c4;stroke:#000;stroke-miterlimit:10;stroke-width:4.57px;}.cls-2{fill:#fff;}</style></defs><title>l2</title><g id="CROHN_S_DISEASE_PATIENTS.psd" data-name="CROHN‘S DISEASE PATIENTS.psd"><rect class="cls-1" x="-162.61" width="160.44" height="160.44"/><rect class="cls-1" x="-0.84" y="160.44" width="160.44" height="160.44"/><rect class="cls-1" x="161.61" y="160.44" width="160.44" height="160.44"/><rect class="cls-1" width="160.44" height="160.44"/><rect class="cls-1" x="162.61" width="160.44" height="160.44"/><path class="cls-2" d="M282.1,458.12q-21.9,0-27.88-2c-.66-83.62-9.29-159.95-25.88-228.31A580.36,580.36,0,0,0,190.51,125q-36.84-65.7-77.65-65.7c-23.23,0-50.44,21.24-82.3,63.05C-2,170.08-30.5,227.16-55,294.86l175.87,25.22c0,2,.67,8,.67,18.58,0,8-1.33,14.6-3.32,19.25-23.23,0-85.62-6-187.16-19.25l-33.18,121.45c-15.27,0-28.54-2-39.83-6.63,12.61-88.94,34.52-167.91,65.71-237.6,18.58-43.14,40.48-82.3,67-117.47,42.48-55.75,83-84.29,121.45-84.29s73,21.24,103.54,63.05c21.9,31.19,40.48,71,55.75,118.8a844.93,844.93,0,0,1,27.87,214.37v45.79C290.72,457.46,284.75,458.12,282.1,458.12Z"/></g></svg>