<svg xmlns="http://www.w3.org/2000/svg" viewBox="0 0 162.77 160.44"><defs><style>.cls-1{fill:#4ee4c4;stroke:#000;stroke-miterlimit:10;stroke-width:4.57px;}.cls-2{fill:#fff;}</style></defs><title>m1</title><g id="CROHN_S_DISEASE_PATIENTS.psd" data-name="CROHN‘S DISEASE PATIENTS.psd"><rect class="cls-1" x="1" y="-160.44" width="160.44" height="160.44"/><rect class="cls-1" width="160.44" height="160.44"/><rect class="cls-1" y="160.44" width="160.44" height="160.44"/><rect class="cls-1" x="163.61" y="160.44" width="160.44" height="160.44"/><rect class="cls-1" x="162.77" width="160.44" height="160.44"/><rect class="cls-1" x="163.61" y="-160.44" width="160.44" height="160.44"/><path class="cls-2" d="M445.7,297.68q-21.9,0-27.87-2c-.66-83.63-9.29-159.95-25.88-228.31A581.93,581.93,0,0,0,354.12-35.49q-36.84-65.7-77.65-65.7c-23.23,0-50.44,21.23-82.3,63.05C161.65,9.64,133.11,66.72,108.55,134.41l175.88,25.22c0,2,.66,8,.66,18.59,0,8-1.32,14.6-3.31,19.24-23.23,0-85.62-6-187.16-19.24L61.43,299.67c-15.26,0-28.53-2-39.82-6.64C34.22,204.1,56.12,125.12,87.32,55.44,105.9,12.3,127.8-26.86,154.35-62c42.47-55.74,83-84.28,121.45-84.28s73,21.23,103.54,63.05c21.9,31.19,40.48,71,55.75,118.8A844.91,844.91,0,0,1,463,249.89v45.8C454.33,297,448.36,297.68,445.7,297.68Z"/></g></svg>