<svg xmlns="http://www.w3.org/2000/svg" viewBox="0 0 159.61 160.44"><defs><style>.cls-1{fill:#4ee4c4;stroke:#000;stroke-miterlimit:10;stroke-width:4.57px;}.cls-2{fill:#fff;}</style></defs><title>m2</title><g id="CROHN_S_DISEASE_PATIENTS.psd" data-name="CROHN‘S DISEASE PATIENTS.psd"><rect class="cls-1" x="-162.61" y="-160.44" width="160.44" height="160.44"/><rect class="cls-1" y="160.44" width="160.44" height="160.44"/><rect class="cls-1" x="161.61" y="160.44" width="160.44" height="160.44"/><rect class="cls-1" x="-0.84" width="160.44" height="160.44"/><rect class="cls-1" x="161.61" width="160.44" height="160.44"/><rect class="cls-1" y="-160.44" width="160.44" height="160.44"/><path class="cls-2" d="M282.1,297.68q-21.9,0-27.88-2c-.66-83.63-9.29-159.95-25.88-228.31A580.36,580.36,0,0,0,190.51-35.49q-36.84-65.7-77.65-65.7c-23.23,0-50.44,21.23-82.3,63.05C-2,9.64-30.5,66.72-55,134.41l175.87,25.22c0,2,.67,8,.67,18.59,0,8-1.33,14.6-3.32,19.24-23.23,0-85.62-6-187.16-19.24l-33.18,121.45c-15.27,0-28.54-2-39.83-6.64,12.61-88.93,34.52-167.91,65.71-237.59C-57.71,12.3-35.81-26.86-9.26-62c42.48-55.74,83-84.28,121.45-84.28s73,21.23,103.54,63.05c21.9,31.19,40.48,71,55.75,118.8a844.91,844.91,0,0,1,27.87,214.36v45.8C290.72,297,284.75,297.68,282.1,297.68Z"/></g></svg>