<svg xmlns="http://www.w3.org/2000/svg" viewBox="0 0 159.44 160.44"><defs><style>.cls-1{fill:#4ee4c4;stroke:#000;stroke-miterlimit:10;stroke-width:4.57px;}.cls-2{fill:#fff;}</style></defs><title>m3</title><g id="CROHN_S_DISEASE_PATIENTS.psd" data-name="CROHN‘S DISEASE PATIENTS.psd"><rect class="cls-1" x="-162.61" y="160.44" width="160.44" height="160.44"/><rect class="cls-1" x="-1" y="160.44" width="160.44" height="160.44"/><rect class="cls-1" x="-1" width="160.44" height="160.44"/><rect class="cls-1" x="-162.61" y="-160.44" width="160.44" height="160.44"/><rect class="cls-1" y="-160.44" width="160.44" height="160.44"/><path class="cls-2" d="M119.49,297.68q-21.9,0-27.88-2C91,212.06,82.32,135.74,65.73,67.38A580.36,580.36,0,0,0,27.9-35.49q-36.84-65.7-77.65-65.7C-73-101.19-100.19-80-132-38.14c-32.52,47.78-61,104.86-85.61,172.55l175.87,25.22c0,2,.67,8,.67,18.59,0,8-1.33,14.6-3.32,19.24-23.23,0-85.62-6-187.16-19.24l-33.18,121.45c-15.27,0-28.54-2-39.82-6.64C-292,204.1-270.09,125.12-238.9,55.44c18.58-43.14,40.49-82.3,67-117.48,42.48-55.74,83-84.28,121.46-84.28s73,21.23,103.53,63.05c21.9,31.19,40.48,71,55.75,118.8a844.91,844.91,0,0,1,27.87,214.36v45.8C128.12,297,122.14,297.68,119.49,297.68Z"/></g></svg>